<svg width="192" height="61" viewBox="0 0 192 61" fill="none" xmlns="http://www.w3.org/2000/svg">
<path d="M103.386 26.2559L98.6203 13.2046L93.7925 26.2559H103.386ZM103.495 4.64844L117.559 38.9196H108.012L105.746 32.828H91.3708L89.1666 38.9196H79.8214L93.8392 4.64844H103.495Z" fill="white"/>
<path d="M135.659 39.5236C124.063 39.5236 117.031 32.7189 117.031 21.7602C117.031 10.941 124.312 4.08984 135.907 4.08984C145.253 4.08984 151.82 9.66996 153.093 17.4666H144.476C143.499 12.7855 139.757 10.755 135.597 10.755C130.366 10.755 126.314 14.7696 126.314 21.7602C126.314 28.9989 130.366 32.8739 135.705 32.8739C139.509 32.8739 143.716 31.3549 144.741 26.1623H153.356C152.037 34.0985 145.051 39.5236 135.659 39.5236Z" fill="white"/>
<path d="M166.551 4.64844V26.8604L182.354 4.64844H190.829V38.9196H182.354V16.7077L166.551 38.9196H158.091V4.64844H166.551Z" fill="white"/>
<path d="M15.4614 10.8037L0 0V43.5714L15.4614 32.7677V10.8037Z" fill="#3366CC"/>
<path d="M46.8652 10.8037V32.7677L62.3266 43.5714V0L46.8652 10.8037Z" fill="#3366CC"/>
<path d="M85.5925 57.2653H83.7054V49.9467H81.2886V48.3783H88.0093V49.9467H85.5925V57.2653ZM114.154 57.2653V48.3643H119.964V49.9328H116.161V52.0118H119.203V53.4808H116.161V55.6967H120.163V57.2653H114.154ZM145.805 57.2653L148.735 48.3643H151.366L154.258 57.2653H152.151L151.54 55.2859H148.311L147.7 57.2653H145.805ZM149.932 50.0075L148.748 53.8543H151.104L149.932 50.0075ZM180.413 57.2653V48.3643H183.081L185.163 53.9041L187.22 48.3643H189.838V57.2653H187.831V51.0159L185.362 57.2653H184.702L182.22 51.0159V57.2653H180.413Z" fill="white"/>
</svg>
