<svg width="652" height="652" viewBox="0 0 652 652" fill="none" xmlns="http://www.w3.org/2000/svg">
<path d="M326.03 651.06C505.539 651.06 651.06 505.539 651.06 326.03C651.06 146.521 505.539 1 326.03 1C146.521 1 1 146.521 1 326.03C1 505.539 146.521 651.06 326.03 651.06Z" stroke="#E0E0E0" stroke-width="0.7039" stroke-miterlimit="10"/>
<path d="M326.03 627.606C492.585 627.606 627.605 492.586 627.605 326.03C627.605 159.475 492.585 24.4546 326.03 24.4546C159.474 24.4546 24.4541 159.475 24.4541 326.03C24.4541 492.586 159.474 627.606 326.03 627.606Z" stroke="#E0E0E0" stroke-width="0.688" stroke-miterlimit="10"/>
<path d="M326.03 604.118C479.614 604.118 604.118 479.614 604.118 326.03C604.118 172.446 479.614 47.9419 326.03 47.9419C172.446 47.9419 47.9419 172.446 47.9419 326.03C47.9419 479.614 172.446 604.118 326.03 604.118Z" stroke="#E0E0E0" stroke-width="0.6722" stroke-miterlimit="10"/>
<path d="M326.03 580.631C466.642 580.631 580.631 466.643 580.631 326.03C580.631 185.418 466.642 71.4297 326.03 71.4297C185.418 71.4297 71.4292 185.418 71.4292 326.03C71.4292 466.643 185.418 580.631 326.03 580.631Z" stroke="#E0E0E0" stroke-width="0.6564" stroke-miterlimit="10"/>
<path d="M326.03 557.143C453.67 557.143 557.143 453.67 557.143 326.03C557.143 198.389 453.67 94.9165 326.03 94.9165C198.389 94.9165 94.9165 198.389 94.9165 326.03C94.9165 453.67 198.389 557.143 326.03 557.143Z" stroke="#E0E0E0" stroke-width="0.6406" stroke-miterlimit="10"/>
<path d="M326.03 533.656C440.698 533.656 533.656 440.699 533.656 326.03C533.656 211.362 440.698 118.404 326.03 118.404C211.361 118.404 118.404 211.362 118.404 326.03C118.404 440.699 211.361 533.656 326.03 533.656Z" stroke="#E0E0E0" stroke-width="0.6247" stroke-miterlimit="10"/>
<path d="M509.897 335.426C515.114 233.861 437.008 147.297 335.444 142.08C233.879 136.863 147.315 214.968 142.098 316.533C136.881 418.098 214.986 504.661 316.551 509.878C418.116 515.096 504.68 436.99 509.897 335.426Z" stroke="#E0E0E0" stroke-width="0.6089" stroke-miterlimit="10"/>
<path d="M486.664 332.039C489.964 243.376 420.764 168.825 332.101 165.524C243.438 162.224 168.887 231.424 165.586 320.087C162.286 408.75 231.485 483.301 320.149 486.602C408.812 489.902 483.363 420.702 486.664 332.039Z" stroke="#E0E0E0" stroke-width="0.5931" stroke-miterlimit="10"/>
<path d="M463.132 329.806C465.163 254.083 405.423 191.051 329.699 189.021C253.976 186.991 190.945 246.731 188.915 322.454C186.884 398.177 246.624 461.208 322.347 463.238C398.071 465.269 461.102 405.529 463.132 329.806Z" stroke="#E0E0E0" stroke-width="0.5773" stroke-miterlimit="10"/>
<path d="M439.703 328.232C440.889 265.463 390.967 213.617 328.198 212.43C265.428 211.244 213.582 261.166 212.396 323.935C211.209 386.705 261.132 438.551 323.901 439.737C386.67 440.924 438.516 391.001 439.703 328.232Z" stroke="#E0E0E0" stroke-width="0.5615" stroke-miterlimit="10"/>
<path d="M416.303 327.235C416.936 277.43 377.074 236.542 327.269 235.91C277.464 235.277 236.576 275.139 235.944 324.944C235.311 374.749 275.173 415.637 324.978 416.269C374.783 416.902 415.671 377.04 416.303 327.235Z" stroke="#E0E0E0" stroke-width="0.5456" stroke-miterlimit="10"/>
<path d="M392.747 326.465C393.028 289.627 363.392 259.536 326.554 259.255C289.716 258.974 259.624 288.609 259.343 325.447C259.062 362.286 288.698 392.377 325.536 392.658C362.374 392.939 392.465 363.303 392.747 326.465Z" stroke="#E0E0E0" stroke-width="0.5298" stroke-miterlimit="10"/>
<path d="M369.252 326.164C369.335 302.297 350.054 282.882 326.188 282.799C302.321 282.716 282.906 301.997 282.823 325.863C282.74 349.73 302.02 369.144 325.887 369.228C349.754 369.311 369.169 350.03 369.252 326.164Z" stroke="#E0E0E0" stroke-width="0.514" stroke-miterlimit="10"/>
<path d="M306.303 326.03C306.303 315.144 315.144 306.303 326.03 306.303C336.916 306.303 345.757 315.144 345.757 326.03C345.757 336.916 336.916 345.757 326.03 345.757C315.144 345.757 306.303 336.916 306.303 326.03Z" stroke="#E0E0E0" stroke-width="0.4982" stroke-miterlimit="10"/>
</svg>
