<svg width="192" height="61" viewBox="0 0 192 61" fill="none" xmlns="http://www.w3.org/2000/svg">
<path d="M103.386 26.2564L98.6202 13.2051L93.7924 26.2564H103.386ZM103.495 4.64893L117.559 38.9201H108.012L105.745 32.8285H91.3707L89.1665 38.9201H79.8213L93.839 4.64893H103.495Z" fill="#132447"/>
<path d="M135.659 39.5234C124.063 39.5234 117.031 32.7188 117.031 21.7601C117.031 10.9409 124.311 4.08972 135.907 4.08972C145.253 4.08972 151.82 9.66984 153.092 17.4665H144.476C143.499 12.7854 139.757 10.7549 135.597 10.7549C130.365 10.7549 126.313 14.7695 126.313 21.7601C126.313 28.9988 130.365 32.8738 135.705 32.8738C139.509 32.8738 143.716 31.3548 144.74 26.1622H153.356C152.036 34.0984 145.051 39.5234 135.659 39.5234Z" fill="#132447"/>
<path d="M166.551 4.64893V26.8609L182.354 4.64893H190.829V38.9201H182.354V16.7082L166.551 38.9201H158.091V4.64893H166.551Z" fill="#132447"/>
<path d="M15.4614 10.8037L0 0V43.5714L15.4614 32.7677V10.8037Z" fill="#3366CC"/>
<path d="M46.8652 10.8037V32.7677L62.3266 43.5714V0L46.8652 10.8037Z" fill="#3366CC"/>
<path d="M85.5925 57.2653H83.7054V49.9467H81.2886V48.3783H88.0093V49.9467H85.5925V57.2653ZM114.154 57.2653V48.3643H119.964V49.9328H116.161V52.0118H119.203V53.4808H116.161V55.6967H120.163V57.2653H114.154ZM145.805 57.2653L148.735 48.3643H151.366L154.258 57.2653H152.151L151.54 55.2859H148.311L147.7 57.2653H145.805ZM149.932 50.0075L148.748 53.8543H151.104L149.932 50.0075ZM180.413 57.2653V48.3643H183.081L185.163 53.9041L187.22 48.3643H189.838V57.2653H187.831V51.0159L185.362 57.2653H184.702L182.22 51.0159V57.2653H180.413Z" fill="#132447"/>
</svg>
