<?xml version="1.0" encoding="utf-8"?><svg viewBox="0 0 341.33 341.33" xmlns="http://www.w3.org/2000/svg" xmlns:xlink="http://www.w3.org/1999/xlink"><style>:root>svg{display:none}:root>svg:target{display:block}</style><svg fill="none" viewBox="0 0 28 8" id="icon-arrow-left" xmlns="http://www.w3.org/2000/svg"><path d="M.646 3.646a.5.5 0 000 .708l3.182 3.182a.5.5 0 00.708-.708L1.707 4l2.829-2.828a.5.5 0 10-.708-.708L.646 3.646zM28 3.5H1v1h27v-1z" fill="#fff"/></svg><svg fill="none" viewBox="0 0 28 8" id="icon-arrow-right" xmlns="http://www.w3.org/2000/svg"><path d="M27.354 4.354a.5.5 0 000-.708L24.172.464a.5.5 0 10-.707.708L26.293 4l-2.828 2.828a.5.5 0 10.707.708l3.182-3.182zM0 4.5h27v-1H0v1z" fill="#fff"/></svg><svg fill="none" viewBox="0 0 8 28" id="icon-arrow-top" xmlns="http://www.w3.org/2000/svg"><path d="M4.354.146a.5.5 0 00-.708 0L.464 3.328a.5.5 0 00.708.708L4 1.207l2.828 2.829a.5.5 0 10.708-.708L4.354.146zM4.5 27.5V.5h-1v27h1z" fill="#36C"/></svg><svg viewBox="0 0 341.333 341.333" id="icon-menu" xmlns="http://www.w3.org/2000/svg"><path d="M0 277.333h341.333V320H0zM0 149.333h341.333V192H0zM0 21.333h341.333V64H0z"/></svg></svg>